<mxfile host="app.diagrams.net" modified="2023-10-02T19:16:41.209Z" agent="Mozilla/5.0 (Windows NT 10.0; Win64; x64) AppleWebKit/537.36 (KHTML, like Gecko) Chrome/117.0.0.0 Safari/537.36" etag="wAKesFL3Qfuzsq5y9YxG" version="21.8.0" type="device">
  <diagram id="C5RBs43oDa-KdzZeNtuy" name="Page-1">
    <mxGraphModel dx="989" dy="523" grid="0" gridSize="10" guides="1" tooltips="1" connect="1" arrows="1" fold="1" page="1" pageScale="1" pageWidth="827" pageHeight="1169" math="0" shadow="0">
      <root>
        <mxCell id="WIyWlLk6GJQsqaUBKTNV-0" />
        <mxCell id="WIyWlLk6GJQsqaUBKTNV-1" parent="WIyWlLk6GJQsqaUBKTNV-0" />
        <mxCell id="XnhOhsrcbPEc2k6Vqo-I-0" value="get_Area_mult" style="rounded=1;whiteSpace=wrap;html=1;fontSize=14;glass=0;strokeWidth=1;shadow=0;" vertex="1" parent="WIyWlLk6GJQsqaUBKTNV-1">
          <mxGeometry x="299" y="253" width="120" height="40" as="geometry" />
        </mxCell>
        <mxCell id="XnhOhsrcbPEc2k6Vqo-I-1" value="Конец" style="rounded=1;whiteSpace=wrap;html=1;fontSize=12;glass=0;strokeWidth=1;shadow=0;" vertex="1" parent="WIyWlLk6GJQsqaUBKTNV-1">
          <mxGeometry x="299" y="455" width="120" height="40" as="geometry" />
        </mxCell>
        <mxCell id="XnhOhsrcbPEc2k6Vqo-I-2" value="Вход. пар-ры: L1, L2, L3&lt;br&gt;Возвр. знач.: S1, S2, S3" style="text;html=1;strokeColor=none;fillColor=none;align=left;verticalAlign=middle;whiteSpace=wrap;rounded=0;" vertex="1" parent="WIyWlLk6GJQsqaUBKTNV-1">
          <mxGeometry x="489" y="258" width="160" height="30" as="geometry" />
        </mxCell>
        <mxCell id="XnhOhsrcbPEc2k6Vqo-I-3" value="" style="endArrow=none;html=1;rounded=0;entryX=1;entryY=0.5;entryDx=0;entryDy=0;exitX=0;exitY=0.5;exitDx=0;exitDy=0;" edge="1" parent="WIyWlLk6GJQsqaUBKTNV-1" source="XnhOhsrcbPEc2k6Vqo-I-2" target="XnhOhsrcbPEc2k6Vqo-I-0">
          <mxGeometry width="50" height="50" relative="1" as="geometry">
            <mxPoint x="399" y="343" as="sourcePoint" />
            <mxPoint x="449" y="293" as="targetPoint" />
          </mxGeometry>
        </mxCell>
        <mxCell id="XnhOhsrcbPEc2k6Vqo-I-4" value="" style="endArrow=none;html=1;rounded=0;" edge="1" parent="WIyWlLk6GJQsqaUBKTNV-1">
          <mxGeometry width="50" height="50" relative="1" as="geometry">
            <mxPoint x="489" y="253" as="sourcePoint" />
            <mxPoint x="489" y="273" as="targetPoint" />
          </mxGeometry>
        </mxCell>
        <mxCell id="XnhOhsrcbPEc2k6Vqo-I-5" value="" style="endArrow=none;html=1;rounded=0;" edge="1" parent="WIyWlLk6GJQsqaUBKTNV-1">
          <mxGeometry width="50" height="50" relative="1" as="geometry">
            <mxPoint x="489" y="293" as="sourcePoint" />
            <mxPoint x="489" y="273" as="targetPoint" />
          </mxGeometry>
        </mxCell>
        <mxCell id="XnhOhsrcbPEc2k6Vqo-I-6" value="" style="endArrow=none;html=1;rounded=0;" edge="1" parent="WIyWlLk6GJQsqaUBKTNV-1">
          <mxGeometry width="50" height="50" relative="1" as="geometry">
            <mxPoint x="489" y="293" as="sourcePoint" />
            <mxPoint x="529" y="293" as="targetPoint" />
          </mxGeometry>
        </mxCell>
        <mxCell id="XnhOhsrcbPEc2k6Vqo-I-7" value="" style="endArrow=none;html=1;rounded=0;" edge="1" parent="WIyWlLk6GJQsqaUBKTNV-1">
          <mxGeometry width="50" height="50" relative="1" as="geometry">
            <mxPoint x="489" y="253" as="sourcePoint" />
            <mxPoint x="529" y="253" as="targetPoint" />
          </mxGeometry>
        </mxCell>
        <mxCell id="XnhOhsrcbPEc2k6Vqo-I-8" value="" style="endArrow=none;html=1;rounded=0;entryX=0.5;entryY=1;entryDx=0;entryDy=0;exitX=0.5;exitY=0;exitDx=0;exitDy=0;" edge="1" parent="WIyWlLk6GJQsqaUBKTNV-1" source="XnhOhsrcbPEc2k6Vqo-I-1" target="XnhOhsrcbPEc2k6Vqo-I-10">
          <mxGeometry width="50" height="50" relative="1" as="geometry">
            <mxPoint x="359" y="533.0000000000002" as="sourcePoint" />
            <mxPoint x="357" y="438" as="targetPoint" />
          </mxGeometry>
        </mxCell>
        <mxCell id="XnhOhsrcbPEc2k6Vqo-I-9" value="" style="endArrow=none;html=1;rounded=0;exitX=0.5;exitY=1;exitDx=0;exitDy=0;entryX=0.5;entryY=0;entryDx=0;entryDy=0;" edge="1" parent="WIyWlLk6GJQsqaUBKTNV-1" source="XnhOhsrcbPEc2k6Vqo-I-0">
          <mxGeometry width="50" height="50" relative="1" as="geometry">
            <mxPoint x="527" y="568.0000000000002" as="sourcePoint" />
            <mxPoint x="359" y="343" as="targetPoint" />
          </mxGeometry>
        </mxCell>
        <mxCell id="XnhOhsrcbPEc2k6Vqo-I-10" value="&lt;div&gt;S1 = get_Area(L1)&lt;/div&gt;&lt;div&gt;S2 = get_Area(L2)&lt;/div&gt;&lt;div&gt;S3 = get_Area(L3)&lt;/div&gt;" style="rounded=0;whiteSpace=wrap;html=1;" vertex="1" parent="WIyWlLk6GJQsqaUBKTNV-1">
          <mxGeometry x="296" y="339" width="126" height="60" as="geometry" />
        </mxCell>
      </root>
    </mxGraphModel>
  </diagram>
</mxfile>
